HIERARCHY
ROOT Hips
{
	OFFSET 0.000000 0.000000 0.000000
	CHANNELS 6 Xposition Yposition Zposition Xrotation Yrotation Zrotation
	JOINT LeftUpLeg_virtual
	{
		OFFSET 0.000000 0.000000 0.000000
		CHANNELS 3 Xrotation Yrotation Zrotation
		JOINT LeftUpLeg
		{
			OFFSET 11.394100 -6.187798 -0.413800
			CHANNELS 3 Xrotation Yrotation Zrotation
			JOINT LeftLeg
			{
				OFFSET 0.430247 -32.302673 3.732800
				CHANNELS 3 Xrotation Yrotation Zrotation
				JOINT LeftFoot
				{
					OFFSET -0.430247 -48.264931 -6.423300
					CHANNELS 3 Xrotation Yrotation Zrotation
					JOINT LeftToeBase
					{
						OFFSET 4.230900 -16.068199 23.438400
						CHANNELS 3 Xrotation Yrotation Zrotation
						JOINT LeftToe_End
						{
							OFFSET 4.510700 0.695400 19.974600
							CHANNELS 3 Xrotation Yrotation Zrotation
							End Site
							{
								OFFSET 0 0 0
							}
						}
					}
				}
			}
		}
	}
	JOINT RightUpLeg_virtual
	{
		OFFSET 0.000000 0.000000 0.000000
		CHANNELS 3 Xrotation Yrotation Zrotation
		JOINT RightUpLeg
		{
			OFFSET -11.333700 -6.187798 -0.413800
			CHANNELS 3 Xrotation Yrotation Zrotation
			JOINT RightLeg
			{
				OFFSET -0.430392 -32.302628 3.733000
				CHANNELS 3 Xrotation Yrotation Zrotation
				JOINT RightFoot
				{
					OFFSET 0.430392 -48.264973 -6.423500
					CHANNELS 3 Xrotation Yrotation Zrotation
					JOINT RightToeBase
					{
						OFFSET -4.230900 -16.068199 23.438400
						CHANNELS 3 Xrotation Yrotation Zrotation
						JOINT RightToe_End
						{
							OFFSET -4.510700 0.695400 19.974600
							CHANNELS 3 Xrotation Yrotation Zrotation
							End Site
							{
								OFFSET 0 0 0
							}
						}
					}
				}
			}
		}
	}
	JOINT Spine_virtual
	{
		OFFSET 0.000000 0.000000 0.000000
		CHANNELS 3 Xrotation Yrotation Zrotation
		JOINT Spine
		{
			OFFSET -0.002400 12.777504 0.315300
			CHANNELS 3 Xrotation Yrotation Zrotation
			JOINT Spine1
			{
				OFFSET -0.002067 5.816869 0.032633
				CHANNELS 3 Xrotation Yrotation Zrotation
				JOINT Spine1_split
				{
					OFFSET -0.002067 5.816869 0.032633
					CHANNELS 3 Xrotation Yrotation Zrotation
					JOINT Spine2
					{
						OFFSET -0.002067 5.816869 0.032633
						CHANNELS 3 Xrotation Yrotation Zrotation
						JOINT Neck_virtual
						{
							OFFSET 0.000000 0.000000 0.000000
							CHANNELS 3 Xrotation Yrotation Zrotation
							JOINT Neck
							{
								OFFSET -0.003700 21.199493 -0.826900
								CHANNELS 3 Xrotation Yrotation Zrotation
								JOINT Head
								{
									OFFSET 0.000000 20.442200 4.834800
									CHANNELS 3 Xrotation Yrotation Zrotation
									JOINT HeadTop_End
									{
										OFFSET 0.000000 34.668396 4.968400
										CHANNELS 3 Xrotation Yrotation Zrotation
										End Site
										{
											OFFSET 0 0 0
										}
									}
								}
							}
						}
						JOINT LeftShoulder_virtual
						{
							OFFSET 0.000000 0.000000 0.000000
							CHANNELS 3 Xrotation Yrotation Zrotation
							JOINT LeftShoulder
							{
								OFFSET 3.288150 8.794197 -1.372250
								CHANNELS 3 Xrotation Yrotation Zrotation
								JOINT LeftShoulder_split
								{
									OFFSET 3.288150 8.794197 -1.372250
									CHANNELS 3 Xrotation Yrotation Zrotation
									JOINT LeftArm
									{
										OFFSET 11.953299 -2.279007 -0.146200
										CHANNELS 3 Xrotation Yrotation Zrotation
										JOINT LeftForeArm
										{
											OFFSET 18.448900 0.000000 0.000000
											CHANNELS 3 Xrotation Yrotation Zrotation
											JOINT LeftHand
											{
												OFFSET 29.527798 0.000000 0.000000
												CHANNELS 3 Xrotation Yrotation Zrotation
												End Site
												{
													OFFSET 0 0 0
												}
											}
										}
									}
								}
							}
						}
						JOINT RightShoulder_virtual
						{
							OFFSET 0.000000 0.000000 0.000000
							CHANNELS 3 Xrotation Yrotation Zrotation
							JOINT RightShoulder
							{
								OFFSET -3.249400 8.794197 -1.372250
								CHANNELS 3 Xrotation Yrotation Zrotation
								JOINT RightShoulder_split
								{
									OFFSET -3.249400 8.794197 -1.372250
									CHANNELS 3 Xrotation Yrotation Zrotation
									JOINT RightArm
									{
										OFFSET -11.953299 -2.279007 -0.146200
										CHANNELS 3 Xrotation Yrotation Zrotation
										JOINT RightForeArm
										{
											OFFSET -18.448900 0.000000 0.000000
											CHANNELS 3 Xrotation Yrotation Zrotation
											JOINT RightHand
											{
												OFFSET -29.527802 0.000000 0.000000
												CHANNELS 3 Xrotation Yrotation Zrotation
												End Site
												{
													OFFSET 0 0 0
												}
											}
										}
									}
								}
							}
						}
					}
				}
			}
		}
	}
}
MOTION
Frames: 11
Frame Time: 0.03333333
6.880872 229.911819 70.083527 0.000000 0.000000 0.000000 8.004931 17.851015 0.444677 -29.985435 17.188639 14.418796 55.246378 -6.464804 1.599381 -8.449145 0.780265 -11.362967 -1.757828 0.417031 5.013047 0.000000 0.000000 0.000000 13.570581 16.311638 -2.022698 -82.718345 6.203532 -13.228562 21.373103 3.604235 -1.417685 32.624832 14.259334 13.493320 1.943964 -0.454969 -1.458434 0.000000 0.000000 0.000000 6.621096 13.828820 1.215798 4.378383 -2.595788 -2.384713 17.337952 -3.516116 1.202877 1.828952 0.538083 0.234297 0.000000 0.000000 0.000000 16.002939 -3.175104 1.373129 -3.596816 1.056288 -7.704136 -4.568662 -6.386570 14.971904 0.000000 0.000000 0.000000 16.310237 -3.133771 1.243811 -1.231930 7.445579 4.956307 -0.394284 1.085076 -0.066961 -106.435815 -51.582166 -114.504740 -4.335556 -83.659463 -2.932388 0.000000 0.000000 0.000000 17.219744 -3.189407 1.450336 2.849761 12.859393 2.432567 -1.310461 2.420440 0.440536 -33.892164 41.044389 60.473580 -0.517976 55.241726 -0.683595 0.000000 0.000000 0.000000 
6.722454 223.693054 75.482292 0.000000 0.000000 0.000000 6.069091 18.642827 0.485708 -31.932227 17.118286 15.027557 55.697136 -5.718658 0.233142 -4.524601 2.341960 -12.022970 -0.922433 0.580545 3.881423 0.000000 0.000000 0.000000 10.954250 15.897352 -1.928025 -80.154981 3.896171 -15.209066 22.951785 4.829410 -1.274269 34.770034 18.421251 11.430099 1.479408 -0.289055 -1.445612 0.000000 0.000000 0.000000 4.504979 14.228933 1.047029 5.281303 -2.654365 -2.324020 17.585758 -2.914507 1.426242 1.298579 -0.075600 0.179634 0.000000 0.000000 0.000000 16.748645 -2.482641 1.617888 -4.862910 0.336110 -7.233375 -4.318656 -6.425245 14.225600 0.000000 0.000000 0.000000 16.588450 -2.427602 1.487097 -1.193480 5.819203 4.394023 0.974456 2.325583 -0.555355 -104.811896 -51.309826 -112.384479 -8.957108 -83.085310 -7.058157 0.000000 0.000000 0.000000 17.765008 -2.450361 1.936570 2.765694 13.077173 3.042741 -1.766471 2.370084 -0.341431 -36.377055 40.409520 60.040744 -0.560460 53.350693 -0.753941 0.000000 0.000000 0.000000 
6.333077 215.887253 80.784988 0.000000 0.000000 0.000000 3.984392 18.109536 0.724195 -32.663730 17.134600 15.526593 54.904899 -4.256980 -1.286143 0.555727 4.133916 -11.247574 0.083310 0.865650 1.548304 0.000000 0.000000 0.000000 8.201717 14.629324 -1.602127 -76.065126 1.089922 -17.214457 23.493440 6.132391 -1.129056 38.110639 22.492151 11.609706 -2.031577 -0.375799 -1.540045 0.000000 0.000000 0.000000 2.927999 14.475490 0.784185 6.020095 -2.675175 -2.293925 17.667001 -2.439328 1.508189 0.718383 -0.577896 0.084938 0.000000 0.000000 0.000000 17.143741 -1.973034 1.711594 -5.900947 -0.260108 -6.870594 -4.229332 -6.135663 13.106723 0.000000 0.000000 0.000000 16.644430 -1.846436 1.473697 -1.072187 3.888056 3.955590 1.547895 3.395087 -0.643397 -102.666219 -50.292380 -109.522042 -9.801248 -81.332513 -7.626551 0.000000 0.000000 0.000000 18.004399 -1.769371 2.153264 2.571224 13.122492 3.405606 -1.735015 1.708345 -0.774169 -38.766921 39.179321 60.773391 -0.764145 55.244978 -0.664083 0.000000 0.000000 0.000000 
6.146071 206.299225 85.859039 0.000000 0.000000 0.000000 1.835294 16.905232 1.106141 -32.255015 16.938427 15.643628 52.903678 -3.246399 -2.174125 6.169232 5.057199 -10.561670 0.526663 1.055415 -1.183161 0.000000 0.000000 0.000000 5.502171 13.227008 -1.056017 -70.314127 -2.106249 -18.351876 22.712264 6.807955 -1.094719 39.502440 24.694059 12.745604 -4.596206 -0.794937 -0.897065 0.000000 0.000000 0.000000 1.627875 14.182925 0.820011 6.387369 -2.485189 -2.151216 17.518141 -2.019436 1.238390 0.685844 -0.721624 0.064060 0.000000 0.000000 0.000000 17.013470 -1.652847 1.429218 -6.374233 -0.607115 -6.708041 -3.812891 -5.424552 11.796409 0.000000 0.000000 0.000000 16.400100 -1.454386 1.032842 -0.901230 2.224834 3.645179 1.893147 3.600643 -0.274122 -100.145565 -49.090680 -106.304183 -8.467794 -78.389453 -6.302815 0.000000 0.000000 0.000000 17.867346 -1.232728 1.883080 2.345991 13.222536 3.456677 -1.415767 0.855764 -0.892458 -40.548108 37.720249 62.558782 -1.038455 60.443076 -0.440006 0.000000 0.000000 0.000000 
6.348755 194.900177 90.638672 0.000000 0.000000 0.000000 -0.292392 15.698024 1.594569 -31.111952 16.321015 15.153786 49.223408 -3.506023 -2.176685 11.491723 4.329079 -10.581568 0.360567 1.004777 -3.571679 0.000000 0.000000 0.000000 2.921073 12.376457 -0.277439 -63.115920 -5.161316 -18.247521 21.968994 5.640920 -1.177892 37.888043 22.763991 12.054880 -2.209518 -1.231295 1.297052 0.000000 0.000000 0.000000 0.305084 13.518603 1.224066 6.301735 -2.100499 -1.836618 17.065900 -1.678685 0.570092 0.847259 -0.647067 -0.069472 0.000000 0.000000 0.000000 16.190658 -1.474947 0.776994 -5.869865 -0.713997 -6.899480 -2.731946 -4.380725 10.520207 0.000000 0.000000 0.000000 15.876983 -1.265657 0.229565 -0.705389 1.183190 3.563668 1.387664 3.413647 0.180993 -96.860183 -48.177013 -102.630463 -6.809078 -74.644651 -4.941794 0.000000 0.000000 0.000000 17.231305 -0.860861 1.140975 2.256272 13.493179 3.053676 -0.870828 0.102919 -0.692155 -41.336947 36.405376 65.191137 -1.346784 67.273026 -0.073448 0.000000 0.000000 0.000000 
6.847747 181.940170 95.138641 0.000000 0.000000 0.000000 -2.326705 15.100438 2.165352 -29.940534 15.420119 14.423034 44.234293 -4.903999 -1.667364 16.556749 2.004285 -11.393786 0.734694 0.690535 -5.488808 0.000000 0.000000 0.000000 0.522687 12.499386 0.754441 -55.720038 -7.500092 -17.209891 21.836931 2.902872 -1.309532 34.836420 17.258237 9.067087 2.818469 -1.240735 4.215437 0.000000 0.000000 0.000000 -1.005776 12.861087 1.849691 5.615797 -1.550217 -1.345538 16.165951 -1.409917 -0.272651 0.699966 -0.346096 -0.068299 0.000000 0.000000 0.000000 14.588632 -1.358451 -0.063473 -4.220009 -0.622041 -7.329374 -0.762214 -3.168804 9.565149 0.000000 0.000000 0.000000 15.025124 -1.210651 -0.665891 -0.567006 1.044441 3.705933 0.433416 2.664292 0.880446 -92.683857 -48.011008 -98.638969 -5.324921 -71.670999 -4.057832 0.000000 0.000000 0.000000 16.077487 -0.614836 0.167843 2.367503 13.921230 2.250647 -0.118236 -0.519338 -0.224337 -40.828999 35.367129 68.056722 -1.762863 73.326097 0.482113 0.000000 0.000000 0.000000 
7.806653 167.659714 99.604523 0.000000 0.000000 0.000000 -3.864677 14.772067 2.553770 -29.661862 14.172484 13.734327 39.441808 -6.408279 -1.109999 21.579665 -0.840491 -12.534460 2.376841 0.202043 -7.261429 0.000000 0.000000 0.000000 -1.685055 13.515990 1.681023 -49.582375 -8.091668 -15.985788 22.543538 1.094412 -1.556384 32.920993 12.009784 7.498992 3.569977 -1.023972 5.609654 0.000000 0.000000 0.000000 -2.556006 12.621366 2.464504 4.515209 -1.054455 -0.845352 14.899682 -1.194859 -0.904610 0.713486 -0.688582 0.118308 0.000000 0.000000 0.000000 12.476966 -1.193249 -0.703161 -1.905366 -0.426162 -7.815272 1.791273 -2.290068 9.161914 0.000000 0.000000 0.000000 13.909192 -1.160957 -1.185027 -0.478971 1.691592 4.134635 -0.478165 2.037532 1.191809 -87.352157 -48.544081 -94.363851 -4.197781 -70.653676 -3.619915 0.000000 0.000000 0.000000 14.461046 -0.482285 -0.590392 2.600277 14.354684 1.355636 0.479113 -0.978763 0.568108 -39.200228 34.417555 70.793032 -1.959888 76.732135 0.906600 0.000000 0.000000 0.000000 
8.924129 152.555786 104.247604 0.000000 0.000000 0.000000 -4.824661 14.559260 2.253196 -30.570837 12.890471 13.220410 36.438376 -6.750051 -0.686949 25.050376 -2.889086 -12.827850 5.203257 -0.362503 -9.033967 0.000000 0.000000 0.000000 -3.280176 15.117630 1.959365 -44.809162 -7.027892 -14.896755 24.499626 1.561339 -1.852870 34.506543 9.580120 10.261628 -3.646863 -1.113126 4.288087 0.000000 0.000000 0.000000 -3.865251 13.054682 2.414664 3.407679 -0.760752 -0.473481 13.522555 -0.958240 -0.931118 0.454098 -1.218687 0.520950 0.000000 0.000000 0.000000 10.276397 -0.850739 -0.738282 0.486373 -0.311049 -8.176824 4.370729 -1.969321 9.311512 0.000000 0.000000 0.000000 12.831175 -0.958903 -0.947260 -0.454451 2.825063 4.842021 -1.259270 1.909227 1.091429 -82.070993 -48.862627 -90.482986 -3.288281 -72.205741 -3.362087 0.000000 0.000000 0.000000 12.730826 -0.287753 -0.710807 2.936671 14.645713 0.523334 1.091969 -1.520729 1.304381 -36.929935 33.380893 72.922849 -1.465842 76.549728 0.780746 0.000000 0.000000 0.000000 
10.002991 137.307373 108.960114 0.000000 0.000000 0.000000 -4.762784 14.186218 0.803735 -33.391453 11.646162 12.940598 37.247982 -5.569628 -0.083678 25.591498 -3.573788 -11.686519 8.010249 -0.933031 -10.575172 0.000000 0.000000 0.000000 -3.905854 17.240279 1.028434 -41.148775 -5.090933 -13.439768 27.009543 3.927142 -2.233885 37.431356 10.081358 16.929010 -16.650502 -0.989349 0.219708 0.000000 0.000000 0.000000 -4.535674 13.742811 1.059082 2.647304 -0.649677 -0.256362 12.489348 -0.486260 -0.110920 0.239296 -1.602089 0.997463 0.000000 0.000000 0.000000 8.650556 -0.216984 0.003252 2.175803 -0.293904 -8.309045 6.179877 -2.361640 9.879538 0.000000 0.000000 0.000000 12.006608 -0.423296 0.191852 -0.523695 4.027802 5.567622 -0.764677 2.259849 0.649495 -78.910685 -48.218537 -88.024855 -2.220464 -75.934833 -2.838197 0.000000 0.000000 0.000000 11.354060 0.103425 0.029973 3.281640 14.758951 0.074965 1.526967 -2.045751 1.730729 -35.106158 31.861460 74.063088 -0.336844 72.121115 0.178117 0.000000 0.000000 0.000000 
10.544490 122.321732 114.097122 0.000000 0.000000 0.000000 -3.815199 13.965999 -2.063966 -38.937187 10.134686 12.722072 42.407531 -3.233162 0.686822 21.749824 -3.469671 -8.990647 8.566298 -1.260925 -11.206254 0.000000 0.000000 0.000000 -3.225529 20.444109 -1.593480 -37.639199 -2.477807 -10.937205 29.686526 6.573065 -2.595564 36.054844 10.760189 24.009419 -27.229126 -0.005814 -4.661872 0.000000 0.000000 0.000000 -4.435250 14.349334 -1.928893 2.769350 -0.644853 -0.157860 12.281991 0.416310 1.439154 0.844088 -2.012953 1.542380 0.000000 0.000000 0.000000 8.273902 0.853976 1.470287 2.550664 -0.452861 -8.303900 6.439128 -3.442835 10.487628 0.000000 0.000000 0.000000 11.864227 0.603196 2.072997 -0.614999 4.844070 6.174185 0.557279 3.342293 -0.340316 -79.406837 -45.997294 -87.189701 -0.646672 -79.992266 -1.578619 0.000000 0.000000 0.000000 10.827323 0.879609 1.566810 3.593371 14.829350 0.024242 1.647349 -2.365602 1.787888 -35.357881 30.023251 74.178265 0.771766 63.373357 -0.279647 0.000000 0.000000 0.000000 
10.781331 107.461563 118.778610 0.000000 0.000000 0.000000 -2.170085 14.307249 -6.173335 -48.797426 8.187863 12.493738 51.877793 -0.643560 1.362134 13.511678 -4.360191 -5.349949 5.995094 -1.271684 -10.353408 0.000000 0.000000 0.000000 -1.259373 24.519134 -5.811405 -34.655369 0.280432 -7.421156 34.527781 6.954669 -2.465054 28.038234 6.960266 25.961187 -28.717469 0.647132 -7.892963 0.000000 0.000000 0.000000 -3.246877 14.432483 -6.330692 3.923996 -0.447512 -0.043461 13.196778 1.956881 3.358918 1.468049 -1.629198 1.683110 0.000000 0.000000 0.000000 9.487366 2.460008 3.280818 1.492894 -0.833746 -8.254834 4.627154 -4.987424 10.630956 0.000000 0.000000 0.000000 12.602887 2.217698 4.197351 -0.709360 5.150381 6.350670 2.750213 3.794406 -1.339483 -83.620729 -42.134580 -86.899711 1.346702 -82.101039 0.316715 0.000000 0.000000 0.000000 11.469658 2.240051 3.526917 3.904046 14.897870 0.153543 1.409392 -2.255690 1.487067 -39.038902 28.290013 72.793417 1.462130 50.983459 -0.312000 0.000000 0.000000 0.000000 
